<svg width="116" height="101" viewBox="0 0 116 101" fill="none" xmlns="http://www.w3.org/2000/svg">
<path d="M115.414 14.5823C112.995 11.7382 110.087 9.35169 106.829 7.53579C96.8504 1.83251 85.4036 -0.757083 73.9508 0.097825C68.3987 0.131549 63.0393 2.14334 58.829 5.77416C58.829 5.77416 58.0485 5.77416 57.6583 5.77416C54.3439 2.89197 50.2187 1.11369 45.8532 0.685048C40.0689 -0.244177 34.1743 -0.244177 28.39 0.685048C20.3736 1.95313 12.7593 5.06864 6.14579 9.78679C3.98886 11.4178 1.9366 13.1828 0 15.0716V100.706H2.7314L49.7559 94.1492C49.8707 94.1035 49.9939 94.0827 50.1173 94.088C50.2407 94.0933 50.3617 94.1248 50.4722 94.1802C50.5827 94.2356 50.6803 94.3138 50.7586 94.4096C50.8369 94.5055 50.8941 94.6168 50.9265 94.7364C51.3229 95.5837 51.7795 96.4013 52.2925 97.1831C52.4414 97.4644 52.6673 97.6969 52.944 97.853C53.2207 98.0092 53.5363 98.0824 53.8532 98.0639C55.7018 97.8678 57.5658 97.8678 59.4143 98.0639C59.9976 98.2394 60.6112 98.2913 61.2156 98.2163C61.8199 98.1412 62.4022 97.9408 62.9252 97.6279C63.4482 97.3149 63.9 96.8962 64.253 96.3985C64.606 95.9007 64.8522 95.3347 64.9753 94.7364C64.9753 94.7364 64.9753 94.0513 66.146 94.1492L83.6092 96.5959L115.024 101C115.902 101 116 101 116 100.021V16.5397C116.063 15.8359 115.854 15.1347 115.414 14.5823ZM54.4386 82.405C39.0666 77.623 22.4994 78.4904 7.7071 84.8517V17.812C7.68048 17.428 7.75703 17.0439 7.92862 16.6997C8.1002 16.3554 8.3603 16.0636 8.68247 15.8546C14.9666 10.7563 22.4641 7.38375 30.439 6.06779C35.8722 4.88983 41.4936 4.88983 46.9268 6.06779C48.36 6.41331 49.71 7.04114 50.8991 7.9148C52.0883 8.78847 53.0924 9.89054 53.8532 11.1569C54.2496 11.8751 54.4514 12.685 54.4386 13.5058V82.405ZM108.195 82.9922C108.195 84.3624 108.195 84.3624 106.926 83.873C96.9131 80.0741 86.18 78.5694 75.5121 79.469C71.9524 79.9749 68.4317 80.7271 64.9753 81.7199C64.0973 81.7199 63.024 82.6007 62.4387 81.7199C61.8533 80.8391 62.4387 80.0562 62.4387 79.1753V46.781C62.4387 35.7219 62.4387 24.7606 62.4387 13.7015C62.3576 12.1535 62.7542 10.618 63.5748 9.30448C64.3954 7.99093 65.6003 6.96321 67.0243 6.36138C69.6596 5.1564 72.5184 4.52278 75.4144 4.5019C84.2771 4.17129 93.095 5.9136 101.171 9.59105C103.245 10.598 105.153 11.9183 106.829 13.5058C107.345 13.9936 107.752 14.5865 108.021 15.2448C108.29 15.9031 108.416 16.6116 108.39 17.3226L108.195 82.9922Z" fill="#FEFEFE"/>
</svg>
