<svg width="337" height="337" viewBox="0 0 337 337" fill="none" xmlns="http://www.w3.org/2000/svg">
<g clip-path="url(#clip0)">
<path d="M168.5 337C261.56 337 337 261.56 337 168.5C337 75.44 261.56 0 168.5 0C75.44 0 0 75.44 0 168.5C0 261.56 75.44 337 168.5 337Z" fill="#FEE187"/>
<path d="M337 168.5C336.996 161.459 336.557 154.424 335.684 147.437L278.532 90.2857L58.4419 246.655L147.438 335.697C154.424 336.57 161.459 337.009 168.5 337.013C261.557 337 337 261.557 337 168.5Z" fill="#FFC61B"/>
<path d="M271.746 97.131H65.2675V239.882H271.746V97.131Z" fill="#F9F5E8"/>
<path d="M271.746 97.131H168.125V239.882H271.746V97.131Z" fill="#D6D1C4"/>
<path d="M278.545 246.681H58.455V90.3187H278.545V246.681ZM72.0732 233.096H264.927V103.93H72.0732V233.096Z" fill="#D48B07"/>
<path d="M278.545 90.3187H168.125V103.937H264.927V233.07H168.125V246.681H278.545V90.3187Z" fill="#A86A07"/>
<path d="M243.752 151.571H189.128V207.143H243.752V151.571Z" fill="#7C4C25"/>
<path d="M246.76 200.081L229.542 197.935V180.512H204.945V197.935L187.733 200.081C184.495 200.729 181.581 202.478 179.487 205.032C177.393 207.585 176.248 210.785 176.247 214.087V229.575C188.376 237.697 202.649 242.023 217.247 242.002C231.842 242.024 246.113 237.698 258.239 229.575V214.087C258.239 210.786 257.095 207.587 255.002 205.033C252.909 202.48 249.997 200.73 246.76 200.081Z" fill="#FCD088"/>
<path d="M244.325 149.958C244.325 165.808 232.201 186.851 217.247 186.851C202.292 186.851 190.161 165.788 190.161 149.958C190.161 134.129 202.292 121.261 217.247 121.261C232.201 121.261 244.325 134.109 244.325 149.958Z" fill="#FFEDB5"/>
<path d="M203.332 136.077C203.332 136.077 222.381 161.747 246.234 165.729C246.234 165.729 251.532 116.699 216.746 116.699C195.381 116.699 181.967 144.193 193.051 166.223C193.064 166.223 192.564 148.504 203.332 136.077Z" fill="#7C4C25"/>
<path d="M202.516 129.758C202.516 128.784 202.903 127.85 203.592 127.161C204.28 126.472 205.215 126.085 206.189 126.085C207.163 126.085 208.097 126.472 208.786 127.161C209.474 127.85 209.862 128.784 209.862 129.758C209.862 131.785 208.216 138.934 206.189 138.934C204.161 138.934 202.516 131.799 202.516 129.758Z" fill="#FF6262"/>
<path d="M209.862 148.017C209.862 148.991 209.474 149.925 208.786 150.614C208.097 151.303 207.163 151.69 206.189 151.69C205.215 151.69 204.28 151.303 203.592 150.614C202.903 149.925 202.516 148.991 202.516 148.017C202.516 145.989 204.161 138.802 206.189 138.802C208.216 138.802 209.862 145.989 209.862 148.017Z" fill="#FF6262"/>
<path d="M215.311 135.221C216.286 135.221 217.22 135.608 217.908 136.297C218.597 136.986 218.984 137.92 218.984 138.894C218.984 139.868 218.597 140.802 217.908 141.491C217.22 142.18 216.286 142.567 215.311 142.567C213.284 142.567 206.136 140.921 206.136 138.894C206.136 136.867 213.258 135.221 215.311 135.221Z" fill="#FF6262"/>
<path d="M197.066 142.567C196.092 142.567 195.158 142.18 194.469 141.491C193.78 140.802 193.393 139.868 193.393 138.894C193.393 137.92 193.78 136.986 194.469 136.297C195.158 135.608 196.092 135.221 197.066 135.221C199.093 135.221 206.248 136.867 206.248 138.894C206.248 140.921 199.093 142.567 197.066 142.567Z" fill="#FF6262"/>
<path d="M210.046 129.844C210.735 129.155 211.669 128.768 212.642 128.768C213.616 128.768 214.55 129.155 215.239 129.844C215.928 130.532 216.314 131.466 216.314 132.44C216.314 133.414 215.928 134.348 215.239 135.037C213.804 136.472 207.584 140.368 206.149 138.934C204.714 137.499 208.611 131.279 210.046 129.844Z" fill="#FFAD9E"/>
<path d="M202.332 147.944C201.643 148.631 200.711 149.016 199.738 149.016C198.766 149.016 197.833 148.631 197.145 147.944C196.456 147.256 196.07 146.322 196.07 145.348C196.07 144.374 196.456 143.44 197.145 142.751C198.573 141.316 204.793 137.42 206.228 138.855C207.663 140.289 203.766 146.509 202.332 147.944Z" fill="#FFAD9E"/>
<path d="M215.233 142.751C215.921 143.44 216.308 144.374 216.308 145.348C216.308 146.322 215.921 147.256 215.233 147.944C214.542 148.63 213.609 149.014 212.636 149.014C211.663 149.014 210.73 148.63 210.039 147.944C208.604 146.509 204.708 140.289 206.143 138.855C207.578 137.42 213.804 141.316 215.233 142.751Z" fill="#FFAD9E"/>
<path d="M197.145 135.024C196.456 134.335 196.07 133.401 196.07 132.427C196.07 131.453 196.456 130.519 197.145 129.831C197.485 129.489 197.889 129.218 198.334 129.033C198.779 128.848 199.256 128.753 199.738 128.753C200.22 128.753 200.697 128.848 201.142 129.033C201.587 129.218 201.992 129.489 202.332 129.831C203.766 131.265 207.663 137.485 206.228 138.92C204.793 140.355 198.573 136.472 197.145 135.024Z" fill="#FFAD9E"/>
<path d="M206.195 142.626C208.224 142.626 209.868 140.982 209.868 138.953C209.868 136.925 208.224 135.28 206.195 135.28C204.167 135.28 202.523 136.925 202.523 138.953C202.523 140.982 204.167 142.626 206.195 142.626Z" fill="#366695"/>
<path d="M245.549 217.819C242.844 212.053 232.872 211.04 223.276 215.542C221.13 216.545 219.106 217.793 217.247 219.261C215.387 217.793 213.363 216.545 211.217 215.542C201.621 211.04 191.649 212.06 188.944 217.819C188.568 218.627 188.345 219.497 188.286 220.386V236.091C197.439 240.004 207.292 242.02 217.247 242.015C227.202 242.02 237.054 240.004 246.208 236.091V220.386C246.148 219.497 245.925 218.627 245.549 217.819Z" fill="white"/>
<path d="M229.542 199.679C229.08 199.674 228.639 199.49 228.311 199.166C227.987 198.838 227.805 198.396 227.804 197.935C227.806 197.476 227.988 197.036 228.311 196.711C228.645 196.397 229.087 196.222 229.545 196.222C230.004 196.222 230.445 196.397 230.779 196.711C231.103 197.036 231.285 197.476 231.286 197.935C231.286 198.396 231.104 198.838 230.779 199.166C230.449 199.491 230.005 199.675 229.542 199.679Z" fill="white"/>
<path d="M215.469 207.058C215.462 206.597 215.637 206.153 215.957 205.821C216.276 205.489 216.714 205.297 217.174 205.287C217.402 205.283 217.629 205.323 217.842 205.407C218.054 205.49 218.248 205.614 218.412 205.773C218.577 205.931 218.708 206.12 218.8 206.329C218.891 206.538 218.94 206.764 218.945 206.992C218.947 207.221 218.904 207.449 218.818 207.662C218.732 207.875 218.604 208.068 218.442 208.231C218.281 208.394 218.088 208.523 217.876 208.611C217.664 208.699 217.437 208.743 217.207 208.743C216.755 208.743 216.321 208.567 215.996 208.252C215.672 207.938 215.483 207.509 215.469 207.058ZM211.277 207.13C210.879 206.895 210.591 206.513 210.474 206.067C210.357 205.621 210.421 205.147 210.651 204.747C210.764 204.547 210.915 204.371 211.096 204.23C211.277 204.089 211.485 203.984 211.706 203.923C211.927 203.862 212.159 203.845 212.386 203.874C212.614 203.902 212.834 203.975 213.034 204.089C213.234 204.202 213.41 204.353 213.551 204.534C213.693 204.715 213.797 204.922 213.858 205.144C213.919 205.365 213.936 205.596 213.908 205.824C213.879 206.052 213.806 206.272 213.692 206.472C213.537 206.733 213.316 206.949 213.052 207.099C212.788 207.249 212.489 207.328 212.185 207.327C211.872 207.342 211.561 207.274 211.283 207.13H211.277ZM220.735 206.386C220.507 205.984 220.449 205.507 220.572 205.062C220.696 204.616 220.991 204.238 221.393 204.01C221.791 203.778 222.265 203.713 222.711 203.831C223.156 203.948 223.537 204.237 223.769 204.635C223.883 204.835 223.956 205.055 223.985 205.283C224.013 205.511 223.996 205.742 223.935 205.963C223.874 206.185 223.77 206.392 223.628 206.573C223.487 206.754 223.311 206.905 223.111 207.018C222.848 207.175 222.548 207.257 222.242 207.255C221.936 207.257 221.636 207.177 221.371 207.025C221.106 206.872 220.887 206.652 220.735 206.386ZM206.82 203.372C206.513 203.027 206.355 202.575 206.38 202.114C206.404 201.653 206.61 201.22 206.952 200.91C207.297 200.606 207.749 200.45 208.208 200.475C208.668 200.501 209.098 200.707 209.407 201.048C209.561 201.218 209.679 201.416 209.756 201.631C209.832 201.846 209.865 202.075 209.853 202.303C209.841 202.531 209.783 202.755 209.684 202.961C209.585 203.167 209.446 203.351 209.276 203.503C208.96 203.793 208.546 203.953 208.117 203.951C207.872 203.951 207.631 203.899 207.407 203.799C207.184 203.699 206.984 203.554 206.82 203.372ZM225.145 203.431C224.81 203.114 224.614 202.677 224.599 202.216C224.585 201.755 224.752 201.307 225.066 200.969C225.383 200.634 225.82 200.438 226.281 200.424C226.741 200.409 227.19 200.576 227.528 200.89C227.864 201.207 228.061 201.643 228.076 202.105C228.091 202.566 227.922 203.015 227.607 203.352C227.444 203.525 227.247 203.663 227.028 203.757C226.81 203.851 226.574 203.899 226.336 203.898C225.894 203.9 225.468 203.732 225.145 203.431Z" fill="white"/>
<path d="M204.945 199.679C204.483 199.674 204.042 199.49 203.714 199.166C203.389 198.838 203.207 198.396 203.207 197.935C203.208 197.476 203.39 197.036 203.714 196.711C204.047 196.397 204.487 196.223 204.945 196.223C205.402 196.223 205.842 196.397 206.176 196.711C206.501 197.035 206.685 197.475 206.689 197.935C206.686 198.397 206.502 198.839 206.176 199.166C205.849 199.492 205.407 199.676 204.945 199.679Z" fill="white"/>
<path d="M135.669 178.656H111.072V203.253H135.669V178.656Z" fill="#FCD088"/>
<path d="M106.978 195.579L93.8598 198.211C90.6219 198.861 87.7088 200.612 85.6161 203.167C83.5233 205.721 82.38 208.922 82.3806 212.224V229.568C94.5069 237.691 108.778 242.017 123.374 241.995C137.969 242.017 152.24 237.691 164.366 229.568V212.231C164.369 208.927 163.226 205.725 161.133 203.169C159.04 200.613 156.126 198.861 152.887 198.211L139.769 195.579L137.453 192.195C137.241 191.885 136.928 191.659 136.568 191.555C136.207 191.452 135.821 191.478 135.478 191.629L123.275 196.849L111.309 191.629C110.967 191.477 110.582 191.449 110.222 191.55C109.861 191.651 109.547 191.874 109.334 192.182L106.978 195.579Z" fill="#F9F5E8"/>
<path d="M150.459 149.958C150.459 165.808 138.328 186.851 123.374 186.851C108.419 186.851 96.2952 165.788 96.2952 149.958C96.2952 134.129 108.419 121.261 123.374 121.261C138.328 121.261 150.459 134.109 150.459 149.958Z" fill="#FFEDB5"/>
<path d="M106.978 137.657C106.978 137.657 122.051 155.547 156.172 154.059C156.172 154.059 157.08 119.523 126.355 119.023C95.6303 118.523 85.1912 146.108 93.5569 162.254C93.5569 162.254 109.624 148.339 106.978 137.657Z" fill="#634200"/>
<path d="M154.803 151.815C154.803 151.815 153.315 165.893 146.602 168.21C146.602 168.21 150.663 158.772 146.602 151.815" fill="#634200"/>
<path d="M92.9382 151.815C92.9382 151.815 94.4257 165.893 101.139 168.21C101.139 168.21 97.0783 158.772 101.139 151.815" fill="#634200"/>
<path d="M106.971 195.578L93.8598 198.211C90.6219 198.858 87.7083 200.608 85.6153 203.162C83.5222 205.715 82.3791 208.916 82.3806 212.218V229.562C91.8188 235.889 102.599 239.936 113.869 241.383L106.971 195.578Z" fill="#442F15"/>
<path d="M152.887 198.211L139.776 195.578L132.898 241.363C144.16 239.914 154.932 235.872 164.366 229.555V212.224C164.367 208.922 163.224 205.721 161.131 203.167C159.038 200.612 156.125 198.861 152.887 198.211Z" fill="#442F15"/>
<path d="M122.123 199.89L113.566 196.46C113.306 196.356 113.024 196.317 112.745 196.347C112.466 196.377 112.198 196.475 111.966 196.632C111.733 196.789 111.543 197.001 111.411 197.249C111.279 197.496 111.21 197.773 111.21 198.053V207.387C111.209 207.668 111.277 207.945 111.408 208.194C111.539 208.442 111.73 208.655 111.963 208.812C112.196 208.97 112.464 209.067 112.744 209.096C113.023 209.126 113.306 209.085 113.566 208.979L122.123 205.55C122.441 205.425 122.715 205.206 122.907 204.923C123.1 204.64 123.202 204.306 123.202 203.964V201.502C123.206 201.156 123.105 200.817 122.912 200.529C122.72 200.241 122.445 200.018 122.123 199.89Z" fill="#940030"/>
<path d="M124.624 199.89L133.181 196.46C133.441 196.356 133.723 196.317 134.002 196.347C134.281 196.377 134.549 196.475 134.781 196.632C135.014 196.789 135.204 197.001 135.336 197.249C135.468 197.496 135.537 197.773 135.537 198.053V207.426C135.537 207.707 135.468 207.983 135.337 208.231C135.205 208.479 135.014 208.69 134.781 208.847C134.549 209.004 134.281 209.101 134.002 209.13C133.723 209.158 133.441 209.118 133.181 209.012L124.624 205.59C124.306 205.462 124.034 205.242 123.842 204.958C123.649 204.674 123.546 204.34 123.545 203.997V201.502C123.541 201.156 123.642 200.817 123.835 200.529C124.027 200.241 124.303 200.018 124.624 199.89Z" fill="#940030"/>
<path d="M123.374 206.373C123.854 206.374 124.329 206.28 124.773 206.097C125.216 205.913 125.619 205.644 125.959 205.305C126.298 204.966 126.567 204.563 126.75 204.119C126.934 203.675 127.027 203.2 127.027 202.72C127.027 201.751 126.642 200.822 125.957 200.137C125.272 199.452 124.342 199.067 123.374 199.067C122.405 199.067 121.476 199.452 120.791 200.137C120.105 200.822 119.72 201.751 119.72 202.72C119.72 203.2 119.814 203.675 119.997 204.119C120.18 204.563 120.449 204.966 120.789 205.305C121.128 205.644 121.531 205.913 121.975 206.097C122.418 206.28 122.894 206.374 123.374 206.373Z" fill="#FF0F27"/>
<path d="M123.374 212.567C124.199 212.567 124.868 211.898 124.868 211.073C124.868 210.247 124.199 209.578 123.374 209.578C122.548 209.578 121.879 210.247 121.879 211.073C121.879 211.898 122.548 212.567 123.374 212.567Z" fill="#C1C1C1"/>
<path d="M123.374 220.103C124.199 220.103 124.868 219.434 124.868 218.609C124.868 217.784 124.199 217.115 123.374 217.115C122.548 217.115 121.879 217.784 121.879 218.609C121.879 219.434 122.548 220.103 123.374 220.103Z" fill="#C1C1C1"/>
<path d="M123.374 227.633C124.199 227.633 124.868 226.964 124.868 226.139C124.868 225.314 124.199 224.645 123.374 224.645C122.548 224.645 121.879 225.314 121.879 226.139C121.879 226.964 122.548 227.633 123.374 227.633Z" fill="#C1C1C1"/>
<path d="M123.374 235.169C124.199 235.169 124.868 234.5 124.868 233.675C124.868 232.85 124.199 232.181 123.374 232.181C122.548 232.181 121.879 232.85 121.879 233.675C121.879 234.5 122.548 235.169 123.374 235.169Z" fill="#C1C1C1"/>
</g>
<defs>
<clipPath id="clip0">
<rect width="337" height="337" fill="white"/>
</clipPath>
</defs>
</svg>
